<?xml version="1.0" standalone="no"?>
<!DOCTYPE svg PUBLIC "-//W3C//DTD SVG 1.1//EN" "http://www.w3.org/Graphics/SVG/1.1/DTD/svg11.dtd" >
<svg xmlns="http://www.w3.org/2000/svg">
<metadata></metadata>
<defs>
<font id="wythernessregular" horiz-adv-x="708" >
<font-face units-per-em="2048" ascent="1638" descent="-410" />
<missing-glyph horiz-adv-x="577" />
<glyph horiz-adv-x="2048" />
<glyph horiz-adv-x="2048" />
<glyph unicode="&#xd;" horiz-adv-x="577" />
<glyph unicode=" "  horiz-adv-x="577" />
<glyph unicode="&#x09;" horiz-adv-x="577" />
<glyph unicode="&#xa0;" horiz-adv-x="577" />
<glyph unicode="!" horiz-adv-x="288" d="M111 2v139h71v-139h-71zM111 350v979h71v-979h-71z" />
<glyph unicode="&#x22;" horiz-adv-x="497" d="M111 1051v278h71v-278h-71zM322 1051v278h69v-278h-69z" />
<glyph unicode="#" horiz-adv-x="872" d="M111 420l6 69h139l14 209h-139l6 70l139 2l11 139h69l-10 -139h209l10 139h70l-10 -139h141l-6 -72h-139l-17 -209h141l-6 -69h-139l-10 -139h-72l12 139h-211l-10 -139h-69l10 139h-139zM326 489h209l16 209h-211z" />
<glyph unicode="$" d="M111 209v4l71 18q66 -74 140 -88v559q-113 16 -207 138h-4v278h4q94 121 207 137v74h69v-74q113 -16 207 -137h4v-2l-72 -18q-66 74 -139 88v-420q113 -16 207 -137h4v-420h-4q-94 -119 -207 -137v-72h-69v72q-113 18 -207 137h-4zM182 860q66 -74 140 -88v414 q-74 -14 -140 -88v-238zM391 143q73 14 139 88v377q-66 74 -139 88v-553z" />
<glyph unicode="%" horiz-adv-x="1267" d="M111 770v418h4q39 53 78 104q37 37 94 37t102 -47q4 -4 70 -94h2v-418h-2q-66 -90 -70 -94q-45 -47 -102 -47t-94 37q-39 51 -78 104h-4zM182 791q61 -92 105 -93q37 0 60.5 31t43.5 62v376l-47 68q-18 25 -57 25q-43 0 -105 -93v-376zM391 0l420 1329h70l-420 -1329h-70 zM811 139v420h2q41 51 80 105q35 35 92 34q57 0 94 -34q39 -53 78 -105h4v-420h-4l-78 -102q-37 -37 -94 -37t-92 37q-39 51 -80 102h-2zM881 162q61 -92 104 -92q35 0 64 30q20 31 43 62v377q-59 90 -107 90q-45 0 -104 -90v-377z" />
<glyph unicode="&#x26;" d="M113 139v551h4q53 70 116 107q-63 35 -116 104h-2v70h-2v217h4q109 141 241 141q131 0 242 -141h4v-287h-4q-76 -94 -154 -123q-63 -12 -127 -24q-76 -18 -135 -84v-508q80 -92 174 -92q92 0 174 92v297q-82 92 -174 92v70q131 0 242 -140h4v-551h-72v140 q-82 -70 -174 -70q-133 0 -241 139h-4zM184 922q80 -90 174 -91q92 1 174 91v245q-82 92 -174 93q-94 0 -174 -93v-245z" />
<glyph unicode="'" horiz-adv-x="288" d="M111 1051v278h71v-278h-71z" />
<glyph unicode="(" horiz-adv-x="462" d="M111 -70v1469h4q111 139 241 139v-70q-92 0 -174 -92v-1423q82 -92 174 -92v-70q-131 0 -241 139h-4z" />
<glyph unicode=")" horiz-adv-x="462" d="M111 -139q94 0 176 92v1423q-82 92 -176 92v70q133 0 243 -139h2v-1469h-2q-111 -139 -243 -139v70z" />
<glyph unicode="*" horiz-adv-x="677" d="M111 991l159 92l-159 93l36 61l158 -92v184h72v-184l158 92l36 -61l-159 -93l159 -92l-36 -59l-158 92v-184h-72v184l-158 -92z" />
<glyph unicode="+" horiz-adv-x="847" d="M111 559v70h280v280h70v-280h280v-70h-280v-278h-70v278h-280z" />
<glyph unicode="," horiz-adv-x="358" d="M111 -139l71 280h70l-70 -280h-71z" />
<glyph unicode="-" horiz-adv-x="847" d="M111 559v70h630v-70h-630z" />
<glyph unicode="." horiz-adv-x="288" d="M111 2v139h71v-139h-71z" />
<glyph unicode="/" d="M111 0l419 1329h72l-420 -1329h-71z" />
<glyph unicode="0" d="M111 139v1049h4q111 141 241 141q131 0 242 -141h4v-1049h-4q-111 -139 -242 -139t-241 139h-4zM182 162q82 -92 174 -92t174 92v1005q-82 92 -174 93q-92 0 -174 -93v-1005zM319 629v141h70v-141h-70z" />
<glyph unicode="1" d="M111 139v4l71 19q66 -74 140 -88v1255h69v-1255q74 14 139 88l72 -19v-4h-4q-111 -139 -242 -139t-241 139h-4z" />
<glyph unicode="2" d="M111 139v490h4q111 141 241 141v-72q-92 0 -174 -90v-446q82 -92 174 -92t174 92l72 -19v-4h-4q-111 -139 -242 -139t-241 139h-4zM111 1102v86h4q111 141 241 141q131 0 242 -141h4v-348h-4q-111 -141 -242 -142v72q92 0 174 90v307q-82 92 -174 93q-92 0 -174 -93v-65 h-71z" />
<glyph unicode="3" d="M111 139v88h71v-65q82 -92 174 -92t174 92v446q-82 90 -174 90v72q92 0 174 90v307q-82 92 -174 93q-92 0 -174 -93v-65h-71v86h4q111 141 241 141q131 0 242 -141h4v-348h-4q-55 -70 -117 -105q61 -37 117 -106h4v-490h-4q-111 -139 -242 -139t-241 139h-4z" />
<glyph unicode="4" d="M111 559l211 770h69l-209 -770v-117q82 -92 174 -92q18 0 35 2v627h70v-598q37 23 69 61l72 -18v-4h-4q-63 -80 -137 -115v-305h-70v283q-18 -2 -35 -2q-131 0 -241 139h-2v139h-2z" />
<glyph unicode="5" d="M111 139v88h71v-65q82 -92 174 -92t174 92v446q-82 90 -174 90t-174 -90v4h-71v576h4q111 141 241 141q131 0 242 -141h4v-2l-72 -19q-82 92 -174 93q-92 0 -174 -93v-469q82 72 174 72q131 0 242 -141h4v-490h-4q-111 -139 -242 -139t-241 139h-4z" />
<glyph unicode="6" d="M111 350v838h4q111 141 241 141v-69q-92 0 -174 -93v-469q84 72 174 72q131 0 242 -141h4v-490h-4q-111 -139 -242 -139t-241 139h-2v211h-2zM182 162q82 -92 174 -92t174 92v446q-82 90 -174 90t-174 -90v-446z" />
<glyph unicode="7" d="M111 1186v2h4q111 141 241 141q131 0 242 -141h4v-139l-211 -1049h-69l208 1049v118q-82 92 -174 93q-92 0 -174 -93z" />
<glyph unicode="8" d="M111 350v279h4q55 70 116 106q-61 35 -116 105h-2v69h-2v279h4q111 141 241 141q131 0 242 -141h4v-348h-4q-55 -70 -117 -105q61 -37 117 -106h4v-490h-4q-111 -139 -242 -139t-241 139h-2v211h-2zM182 162q82 -92 174 -92t174 92v446q-82 90 -174 90t-174 -90v-446z M182 860q82 -90 174 -90t174 90v307q-82 92 -174 93q-92 0 -174 -93v-307z" />
<glyph unicode="9" d="M111 698v490h4q111 141 241 141q131 0 242 -141h4v-1049h-4q-111 -139 -242 -139v70q92 0 174 92v467q-82 -70 -174 -70q-131 0 -241 139h-4zM182 721q82 -92 174 -92t174 92v446q-82 92 -174 93q-92 0 -174 -93v-446z" />
<glyph unicode=":" horiz-adv-x="288" d="M111 2v139h71v-139h-71zM111 561v139h71v-139h-71z" />
<glyph unicode=";" horiz-adv-x="358" d="M111 -139l71 280h70l-70 -280h-71zM182 561v139h70v-139h-70z" />
<glyph unicode="&#x3c;" horiz-adv-x="851" d="M111 561v70l634 211v-70l-528 -176l524 -174v-70z" />
<glyph unicode="=" horiz-adv-x="847" d="M111 420v69h630v-69h-630zM111 698v72h630v-72h-630z" />
<glyph unicode="&#x3e;" horiz-adv-x="851" d="M111 772v70l634 -211v-70l-628 -209v70l524 174z" />
<glyph unicode="?" d="M111 1186v4h4q111 139 241 139q131 0 242 -139h4v-350h-4q-86 -111 -188 -133v-357h-72v420h20q90 0 172 92v305q-82 92 -174 93q-92 0 -174 -93zM338 2v139h72v-139h-72z" />
<glyph unicode="@" horiz-adv-x="987" d="M111 209v862h4q111 139 241 139h140q131 0 243 -139h2v-721h-69v70q-84 -70 -176 -70q-131 0 -242 139h-2v281h2q111 139 242 139q92 0 176 -69v209q-84 92 -176 92h-140q-92 0 -174 -92v-818q82 -92 174 -92h281q92 0 174 92v258h70v-280h-2q-111 -139 -242 -139h-281 q-131 0 -241 139h-4zM322 512q82 -92 174 -92t176 92v236q-84 92 -176 92t-174 -92v-236z" />
<glyph unicode="A" d="M111 2v1188h4q111 139 241 139q131 0 242 -139h4v-1188h-72v698h-348v-698h-71zM182 770h348v399q-82 90 -174 91q-92 0 -174 -91v-399z" />
<glyph unicode="B" d="M111 2v1327h247q131 0 240 -139h4v-350h-4q-55 -68 -117 -105q61 -35 117 -104h4v-490h-4q-109 -137 -240 -139h-247zM182 72h174q92 0 174 92v444q-82 92 -174 92h-174v-628zM182 770h174q92 0 174 92v305q-82 92 -174 93h-174v-490z" />
<glyph unicode="C" d="M111 141v1049h4q111 139 241 139q131 0 242 -139h4v-2l-72 -21q-82 92 -174 93q-92 0 -174 -93v-1003q82 -92 174 -92t174 92l72 -19v-4h-4q-111 -139 -242 -139t-241 139h-4z" />
<glyph unicode="D" d="M111 2v1327h247q131 0 240 -139h4v-1049h-4q-109 -137 -240 -139h-247zM182 72h174q92 0 174 92v1005q-82 90 -174 91h-174v-1188z" />
<glyph unicode="E" horiz-adv-x="696" d="M111 141v1049h4q111 139 241 139q131 0 242 -139h4v-2l-72 -19q-82 90 -174 91q-92 0 -174 -91v-399h279v-70h-279v-536q82 -92 174 -92t174 92l72 -19v-4h-4q-111 -139 -242 -139t-241 139h-4z" />
<glyph unicode="F" horiz-adv-x="643" d="M111 2v1188h4q111 139 241 139q131 0 242 -139h4v-2l-72 -19q-82 90 -174 91q-92 0 -174 -91v-399h279v-70h-279v-698h-71z" />
<glyph unicode="G" d="M111 141v1049h4q111 139 241 139q131 0 242 -139h4v-2l-72 -19q-82 90 -174 91q-92 0 -174 -91v-1005q82 -92 174 -92t174 92v536h-208v70h280v-629h-4q-111 -139 -242 -139t-241 139h-4z" />
<glyph unicode="H" d="M111 2v1327h71v-559h348v559h72v-1327h-72v698h-348v-698h-71z" />
<glyph unicode="I" horiz-adv-x="288" d="M111 2v1327h71v-1327h-71z" />
<glyph unicode="J" d="M111 141v4l71 19q82 -92 174 -92t174 92v1165h72v-1188h-4q-111 -139 -242 -139t-241 139h-4z" />
<glyph unicode="K" d="M111 2v1327h71v-629q53 45 174 70q115 25 174 92v467h72v-489h-4q-55 -68 -117 -105q61 -35 117 -104h4v-629h-72v606q-82 92 -174 92t-174 -92v-606h-71z" />
<glyph unicode="L" horiz-adv-x="704" d="M111 141v1188h71v-1165q82 -92 174 -92h242v-70h-242q-131 0 -241 139h-4z" />
<glyph unicode="M" horiz-adv-x="1126" d="M111 2v1188h4q111 139 241 139q111 0 209 -102q100 102 211 102q131 0 242 -139h2v-1188h-70v1167q-82 90 -174 91q-92 0 -174 -91v-1167h-72v1165q-82 92 -174 93q-92 0 -174 -93v-1165h-71z" />
<glyph unicode="N" d="M111 2v1188h4q111 139 241 139q131 0 242 -139h4v-1188h-72v1167q-82 90 -174 91q-92 0 -174 -91v-1167h-71z" />
<glyph unicode="O" d="M111 141v1049h4q111 139 241 139q131 0 242 -139h4v-1049h-4q-111 -139 -242 -139t-241 139h-4zM182 164q82 -92 174 -92t174 92v1005q-82 90 -174 91q-92 0 -174 -91v-1005z" />
<glyph unicode="P" d="M111 2v1327h247q131 0 240 -139h4v-350h-4q-94 -119 -207 -138v-2h-209v-698h-71zM182 770h174q92 0 174 92v307q-82 90 -174 91h-174v-490z" />
<glyph unicode="Q" d="M111 -51l86 110q-43 33 -82 82h-4v1049h4q111 139 241 139q131 0 242 -139h4v-1049h-4q-61 -78 -129 -112l6 -4l55 -41q53 -39 129 -39q31 0 68 6l8 10l58 -43l-17 -18l-10 -6q-59 -16 -115 -17q-98 0 -162 49l-55 43q-31 25 -72 33h-6q-27 0 -53 6q-31 0 -65 -6l-70 -94 zM182 164q66 -74 135 -88q25 0 45 -4q88 4 168 92v1005q-82 90 -174 91q-92 0 -174 -91v-1005z" />
<glyph unicode="R" d="M111 2v1327h247q131 0 240 -139h4v-350h-4q-55 -68 -117 -105q61 -35 117 -104h4v-629h-72v606q-82 92 -174 92h-174v-698h-71zM182 770h174q92 0 174 92v307q-82 90 -174 91h-174v-490z" />
<glyph unicode="S" d="M111 141v4l71 19q82 -92 174 -92t174 92v444q-82 92 -174 92q-131 0 -241 140h-4v350h4q111 139 241 139q131 0 242 -139h4v-2l-72 -21q-82 92 -174 93q-92 0 -174 -93v-305q82 -92 174 -92q131 0 242 -139h4v-490h-4q-111 -139 -242 -139t-241 139h-4z" />
<glyph unicode="T" d="M111 1186v4h4q111 139 241 139q131 0 242 -139h4v-4l-72 -19q-66 74 -139 88v-1253h-69v1253q-74 -14 -140 -88z" />
<glyph unicode="U" d="M111 141v1188h71v-1165q82 -92 174 -92t174 92v1165h72v-1188h-4q-111 -139 -242 -139t-241 139h-4z" />
<glyph unicode="V" d="M111 1325h71l174 -1106l174 1110h72l-211 -1333h-69z" />
<glyph unicode="W" horiz-adv-x="1126" d="M111 141v1188h71v-1165q82 -92 174 -92t174 92v1165h72v-1165q82 -92 174 -92t174 92v1165h70v-1188h-2q-111 -139 -242 -139q-111 0 -211 102q-98 -102 -209 -102q-131 0 -241 139h-4z" />
<glyph unicode="X" d="M111 2l211 664l-211 663h71l174 -553l174 553h72l-211 -663l211 -664h-72l-174 553l-174 -553h-71z" />
<glyph unicode="Y" d="M111 840v489h71v-467q82 -92 174 -92t174 92v467h72v-489h-4q-94 -119 -207 -138v-700h-69v700q-113 18 -207 138h-4z" />
<glyph unicode="Z" d="M111 141v4h2l411 1031q-80 84 -168 84q-92 0 -174 -93l-71 19v4h4q111 139 241 139q131 0 242 -139h4v-4l-412 -1032q78 -82 166 -82q92 0 174 92l72 -19v-4h-4q-111 -139 -242 -139q-66 0 -133 47q-25 16 -110 92h-2z" />
<glyph unicode="[" horiz-adv-x="428" d="M111 -209v1747h211v-70h-140v-1607h140v-70h-211z" />
<glyph unicode="\" d="M111 1329h71l420 -1329h-72z" />
<glyph unicode="]" horiz-adv-x="428" d="M111 -139h141v1607h-141v70h211v-1747h-211v70z" />
<glyph unicode="^" horiz-adv-x="567" d="M111 1051l141 278h70l139 -285h-70l-104 216l-105 -209h-71z" />
<glyph unicode="_" horiz-adv-x="970" d="M111 -334h753v-69h-753v69z" />
<glyph unicode="`" horiz-adv-x="481" d="M111 1329h71l193 -278h-70z" />
<glyph unicode="a" d="M111 139v281h4q111 139 241 139q92 0 174 -70v259q-82 92 -174 92t-174 -92l-71 18v4h4q111 139 241 139q131 0 242 -139h4v-770h-72v70q-84 -70 -174 -70q-131 0 -241 139h-4zM182 162q82 -92 174 -92t174 92v235q-82 92 -174 92t-174 -92v-235z" />
<glyph unicode="b" d="M111 0v1329h71v-489q81 69 171 69h3q131 0 242 -139h4v-631h-4q-111 -139 -242 -139q-92 0 -174 70v-70h-71zM182 162q82 -92 174 -92t174 92v586q-82 92 -174 92t-174 -92v-586z" />
<glyph unicode="c" d="M111 139v631h4q111 139 241 139q131 0 242 -139h4v-4l-72 -18q-82 92 -174 92t-174 -92v-586q82 -92 174 -92t174 92l72 -19v-4h-4q-111 -139 -242 -139t-241 139h-4z" />
<glyph unicode="d" d="M111 141v629h4q111 141 241 141q92 0 174 -71v489h72v-1327h-72v70q-82 -70 -174 -70q-131 0 -241 139h-4zM182 164q82 -92 174 -92t174 92v586q-82 90 -174 90t-174 -90v-586z" />
<glyph unicode="e" d="M111 139v631h4q111 139 241 139q131 0 242 -139h4v-281h-4q-111 -139 -242 -139q-92 0 -174 70v-258q82 -92 174 -92t174 92l72 -19v-4h-4q-111 -139 -242 -139t-241 139h-4zM182 512q82 -92 174 -92t174 92v236q-82 92 -174 92t-174 -92v-236z" />
<glyph unicode="f" horiz-adv-x="540" d="M111 0v1188h4q111 141 241 141q131 0 242 -141h4v-2l-72 -19q-82 92 -174 93q-92 0 -174 -93v-258h279v-69h-279v-840h-71z" />
<glyph unicode="g" d="M111 139v631h4q111 139 241 139q92 0 174 -69v69h72v-1190h-4q-111 -139 -242 -139v70q92 0 174 92v328q-82 -70 -174 -70q-131 0 -241 139h-4zM182 162q82 -92 174 -92t174 92v586q-82 92 -174 92t-174 -92v-586z" />
<glyph unicode="h" d="M111 0v1329h71v-489q83 69 171 69h3q131 0 242 -139h4v-770h-72v748q-82 92 -174 92t-174 -92v-748h-71z" />
<glyph unicode="i" horiz-adv-x="288" d="M111 0v909h71v-909h-71zM111 1049v139h71v-139h-71z" />
<glyph unicode="j" horiz-adv-x="290" d="M-74 -350q94 0 176 92v1167h70v-1190h-2q-111 -139 -244 -139v70zM102 1049v139h70v-139h-70z" />
<glyph unicode="k" d="M111 0v1329h71v-770q84 70 174 70q92 0 174 92v188h72v-211h-4q-55 -68 -117 -104q61 -35 117 -105h4v-489h-72v467q-82 92 -174 92t-174 -92v-467h-71z" />
<glyph unicode="l" horiz-adv-x="288" d="M111 0v1329h71v-1329h-71z" />
<glyph unicode="m" horiz-adv-x="1126" d="M111 0v909h71v-69q83 69 171 69h3q111 0 209 -102q100 102 211 102q131 0 242 -139h2v-770h-70v748q-82 92 -174 92t-174 -92v-748h-72v748q-82 92 -174 92t-174 -92v-748h-71z" />
<glyph unicode="n" d="M111 0v909h71v-69q83 69 171 69h3q131 0 242 -139h4v-770h-72v748q-82 92 -174 92t-174 -92v-748h-71z" />
<glyph unicode="o" d="M111 139v631h4q111 139 241 139q131 0 242 -139h4v-631h-4q-111 -139 -242 -139t-241 139h-4zM182 162q82 -92 174 -92t174 92v586q-82 92 -174 92t-174 -92v-586z" />
<glyph unicode="p" d="M111 -420v1329h71v-69q81 69 171 69h3q131 0 242 -139h4v-631h-4q-111 -139 -242 -139q-92 0 -174 70v-490h-71zM182 162q82 -92 174 -92t174 92v586q-82 92 -174 92t-174 -92v-586z" />
<glyph unicode="q" d="M111 139v631h4q111 139 241 139q92 0 174 -69v69h72v-1329h-72v490q-82 -70 -174 -70q-131 0 -241 139h-4zM182 162q82 -92 174 -92t174 92v586q-82 92 -174 92t-174 -92v-586z" />
<glyph unicode="r" horiz-adv-x="634" d="M111 0v909h71v-69q81 69 171 69h3q131 0 242 -139h4v-4l-72 -18q-82 92 -174 92t-174 -92v-748h-71z" />
<glyph unicode="s" d="M111 141v2l71 19q82 -90 174 -90t174 90v168q-82 90 -174 90q-131 0 -241 141h-4v209h4q111 139 241 139q131 0 242 -139h4v-2l-72 -20q-82 92 -174 92t-174 -92v-166q82 -90 174 -90q131 0 242 -142h4v-209h-4q-111 -139 -242 -139t-241 139h-4z" />
<glyph unicode="t" horiz-adv-x="520" d="M111 141v1047h69v-293h287v-70h-287v-661q82 -92 176 -92v-70q-133 0 -243 139h-2z" />
<glyph unicode="u" d="M111 141v768h71v-747q82 -90 174 -90t174 90v747h72v-907h-72v70q-82 -70 -174 -70q-131 0 -241 139h-4z" />
<glyph unicode="v" horiz-adv-x="626" d="M70 905h71l174 -758l174 762h72l-211 -913h-69z" />
<glyph unicode="w" horiz-adv-x="1060" d="M70 141v768h71v-747q82 -90 174 -90t174 90v747h72v-747q82 -90 174 -90t174 90v747h70v-768q-41 -57 -107 -96q-72 -43 -137 -43q-111 0 -211 102q-98 -102 -209 -102q-131 0 -241 139h-4z" />
<glyph unicode="x" horiz-adv-x="651" d="M70 2l211 453l-211 454h71l174 -379l174 379h72l-211 -454l211 -453h-72l-174 377l-174 -377h-71z" />
<glyph unicode="y" d="M111 141v768h71v-747q82 -90 174 -90t174 90v747h72v-1188h-4q-111 -139 -242 -139v70q92 0 174 92v328q-82 -70 -174 -70q-131 0 -241 139h-4z" />
<glyph unicode="z" d="M111 141v2l4 2l401 619q-76 76 -160 76q-92 0 -174 -92l-71 18v4h4q111 139 241 139q131 0 242 -139h4v-4l-403 -621q75 -73 155 -73h2q92 0 174 90l72 -19v-2h-4q-111 -139 -242 -139q-66 0 -133 47q-25 16 -110 92h-2z" />
<glyph unicode="{" horiz-adv-x="636" d="M111 629l2 69q92 0 174 93v608h2q111 139 241 139v-70q-92 0 -174 -92v-606h-2q-55 -70 -118 -106q63 -35 118 -105h2v-606q82 -92 174 -92v-70q-131 0 -241 139h-2v607q-82 92 -176 92z" />
<glyph unicode="|" horiz-adv-x="288" d="M111 -203v1737h71v-1737h-71z" />
<glyph unicode="}" horiz-adv-x="636" d="M111 -139q94 0 176 92v606h2q55 70 117 105q-61 37 -117 106h-2v606q-82 92 -176 92v70q133 0 243 -139h2v-608q82 -92 174 -93v-69q-92 0 -174 -92v-607h-2q-111 -139 -243 -139v70z" />
<glyph unicode="~" horiz-adv-x="960" d="M111 645l86 113l2 -2q59 16 114 16q92 0 162 -51l55 -41q53 -39 129 -39q31 0 68 6l70 94l57 -43l-86 -110l-2 2q-59 -16 -115 -17q-98 0 -162 50l-55 43q-49 39 -129 39q-31 0 -67 -7l-70 -94z" />
<glyph unicode="&#xa0;" horiz-adv-x="2107" d="M111 74v237h12v-88q16 12 31 13q25 0 45 -25v-137h-15v133q-14 16 -30 16t-31 -16v-133h-12zM111 508v164h12v-15q14 14 31 15q20 0 39 -19q16 18 36 19q23 0 43 -27v-137h-12v133q-14 16 -31 16q-16 0 -30 -16v-133h-15v133q-14 16 -30 16t-31 -16v-133h-12zM111 944 v236h12v-236h-12zM160 942v164h12v-12q14 12 31 12q23 0 43 -25v-139h-13v135q-14 16 -30 17q-16 0 -31 -17v-135h-12zM233 98v113q20 25 43 25q25 0 46 -25v-49q-20 -25 -46 -25q-16 0 -30 13v-48q14 -16 30 -16t31 16l15 -2v-2q-20 -25 -46 -24q-23 0 -43 24zM246 166 q14 -16 30 -16q17 0 31 16v41q-14 16 -31 16q-16 0 -30 -16v-41zM283 969l12 4q14 -16 31 -17q16 0 30 17v28q-14 16 -30 17q-31 10 -43 24v39q18 25 43 25q23 0 43 -25v-2l-13 -2q-14 16 -30 17q-16 0 -31 -17v-30q14 -16 31 -17q31 -8 43 -24v-37q-20 -25 -43 -25 q-25 0 -43 25zM291 1364v246q23 29 51 28q27 0 49 -28h2l-16 -4q-16 18 -35 18q-20 0 -37 -18v-82h57v-17h-57v-143h-14zM307 508v164h12v-164h-12zM307 696v25h12v-25h-12zM356 98v52q20 25 43 24q16 0 31 -12v45q-14 16 -31 16q-16 0 -30 -16l-13 4q20 25 43 25 q25 0 45 -25v-137h-14v12q-14 -12 -31 -12q-23 0 -43 24zM356 508v164h13v-15q14 14 30 15q25 0 43 -27v-137h-12v133q-14 16 -31 16q-16 0 -30 -16v-133h-13zM369 102q14 -16 30 -16q17 0 31 16v43q-14 16 -31 17q-16 0 -30 -17v-43zM406 942v164h12v-164h-12zM406 1130v25 h12v-25h-12zM414 1393v129q23 29 49 28q29 0 51 -28v-129q-23 -31 -51 -31q-27 0 -49 31zM428 1397q16 -20 35 -21q21 1 37 21v121q-16 18 -37 18q-18 0 -35 -18v-121zM453 969v112q20 25 43 25q18 0 32 -12v86h13v-236h-13v12q-14 -12 -32 -12q-23 0 -43 25zM467 973 q14 -16 31 -17q16 1 30 17v104q-14 16 -30 17q-16 0 -31 -17v-104zM479 74v162h13v-13q14 12 30 13q25 0 43 -25h2l-12 -4q-16 16 -33 16q-16 0 -30 -16v-133h-13zM479 535v110q20 27 43 27q16 0 31 -15v88h14v-235h-14v12q-14 -12 -31 -12q-23 0 -43 25zM492 539 q14 -16 30 -17q17 1 31 17v104q-14 14 -31 14q-16 0 -30 -14v-104zM557 1362v188h14v-12q16 12 37 12q27 0 49 -28v-160h-14v156q-16 18 -37 18q-18 0 -35 -18v-156h-14zM575 969v112q20 25 46 25q23 0 43 -25v-51q-20 -25 -43 -24q-16 0 -31 12v-45q14 -16 31 -17 q16 0 30 17l13 -4q-20 -27 -43 -27q-25 0 -46 27zM590 1034q14 -16 31 -16q16 0 30 16v43q-14 16 -30 17q-16 0 -31 -17v-43zM602 485l12 50h13l-13 -50h-12zM700 1364v246h15v-60h57v-14h-57v-172h-15zM711 100v136h14v-134q14 -14 31 -14q16 0 30 14v134h13v-211 q-20 -25 -43 -25v12q16 0 30 17v59q-14 -12 -30 -12q-25 0 -45 24zM784 508v164h13v-15q14 14 30 15q25 0 43 -27v-137h-12v133q-14 16 -31 16q-16 0 -30 -16v-133h-13zM819 969v137h15v-133q14 -16 30 -17q16 0 31 17v133h12v-211q-20 -27 -43 -27v15q16 0 31 16v57 q-14 -12 -31 -12q-25 0 -45 25zM834 98v113q20 25 45 25q23 0 43 -25v-113q-20 -25 -43 -24q-25 0 -45 24zM848 102q14 -16 31 -16q16 0 30 16v105q-14 16 -30 16t-31 -16v-105zM907 535v110q18 27 43 27q23 0 43 -27v-110q-20 -27 -43 -27q-25 0 -43 27zM920 537 q14 -16 30 -17q17 1 31 17v104q-14 16 -31 16q-16 0 -30 -16v-104zM942 969v112q20 25 45 25q23 0 43 -25v-112q-20 -27 -43 -27q-25 0 -45 27zM954 1333l15 4q18 -18 37 -18q18 0 34 16l-12 33q-12 -4 -22 -4q-27 0 -52 29v217q25 29 52 28q29 0 51 -28v-217 q-8 -10 -19 -17l19 -43q-33 -29 -51 -28q-27 0 -52 28zM956 973q14 -16 31 -17q17 1 31 17v104q-14 16 -31 17q-16 0 -31 -17v-104zM958 100v136h13v-134q14 -14 30 -14t31 14v134h12v-160h-12v12q-14 -12 -31 -12q-25 0 -43 24zM969 1397q18 -18 37 -19q8 0 16 4l-53 131 v-116zM969 1552l65 -163l8 8v209q-18 18 -36 18t-37 -18v-54zM1030 608v13h111v-13h-111zM1065 969v137h14v-133q14 -16 31 -17q16 0 31 17v133h12v-162h-12v12q-14 -12 -31 -12q-25 0 -45 25zM1098 1393v157h14v-153q18 -18 37 -19q18 0 37 19v153h14v-186h-14v14 q-18 -14 -37 -14q-27 0 -51 29zM1178 535v110q20 27 43 27q25 0 43 -27v-110q-18 -27 -43 -27q-23 0 -43 27zM1190 537q14 -16 31 -17q16 1 30 17v104q-14 16 -30 16t-31 -16v-104zM1190 942v164h12v-12q14 12 31 12q23 0 43 -25v-2l-12 -2q-14 16 -31 17q-16 0 -31 -17 v-135h-12zM1202 100v111q18 25 43 25q16 0 31 -13v88h12v-235h-12v12q-14 -12 -31 -12q-25 0 -43 24zM1214 104q14 -16 31 -16t31 16v103q-14 16 -31 16q-16 0 -31 -16v-103zM1241 1393v129q25 29 51 28q29 0 51 -28v-129q-23 -31 -51 -31q-27 0 -51 31zM1255 1397 q18 -20 37 -21q21 1 37 21v121q-16 18 -37 18q-18 0 -37 -18v-121zM1300 508v164h13v-15q14 14 30 15q25 0 43 -27v-137h-12v133q-14 16 -31 16q-16 0 -30 -16v-133h-13zM1325 74v162h12v-13q14 12 31 13q23 0 43 -25l-12 -4q-14 16 -31 16q-16 0 -31 -16v-133h-12z M1384 1364v246h15v-60h59v-14h-59v-172h-15zM1421 969v112q20 25 43 25q25 0 43 -25v-112q-18 -27 -43 -27q-23 0 -43 27zM1423 535v110q20 27 43 27q25 0 43 -27v-49q-18 -25 -43 -25q-16 0 -30 13v-45q14 -18 30 -19q16 0 31 19l12 -4q-18 -27 -43 -27q-23 0 -43 27z M1434 973q14 -16 30 -17q17 1 31 17v104q-14 16 -31 17q-16 0 -30 -17v-104zM1436 98v113q20 25 43 25q25 0 45 -25v-49q-20 -25 -45 -25q-16 0 -31 13v-48q14 -16 31 -16q16 0 30 16l15 -2v-2q-20 -25 -45 -24q-23 0 -43 24zM1436 600q14 -16 30 -16q17 0 31 16v41 q-14 16 -31 16q-16 0 -30 -16v-41zM1448 166q14 -16 31 -16q16 0 30 16v41q-14 16 -30 16t-31 -16v-41zM1499 1393v129q23 29 51 28q27 0 52 -28v-58q-25 -29 -52 -28q-18 0 -37 14v-53q18 -20 37 -21q18 0 37 21l15 -4q-25 -31 -52 -31q-29 0 -51 31zM1513 1468 q18 -18 37 -18t37 18v50q-18 18 -37 18q-18 0 -37 -18v-50zM1544 969v137h12v-133q14 -16 31 -17q16 0 31 17v133h12v-133q16 -16 33 -17q16 0 31 17v133h12v-137q-18 -25 -43 -25q-20 0 -39 19q-16 -18 -37 -19q-23 0 -43 25zM1559 98v52q20 25 43 24q16 0 30 -12v45 q-14 16 -30 16t-31 -16l-12 4q20 25 43 25q25 0 45 -25v-137h-15v12q-14 -12 -30 -12q-23 0 -43 24zM1571 102q14 -16 31 -16q16 0 30 16v43q-14 16 -30 17q-16 0 -31 -17v-43zM1667 535v110q20 27 43 27q25 0 43 -27h2l-14 -4q-14 16 -31 16q-16 0 -31 -16v-104 q14 -16 31 -17q16 0 31 19l14 -4h-2q-18 -27 -43 -27q-23 0 -43 27zM1681 74v162h13v-13q16 12 30 13q20 0 39 -19q16 18 37 19q23 0 43 -25v-137h-12v133q-14 16 -31 16q-16 0 -31 -16v-133h-14v133q-14 16 -31 16q-16 0 -30 -16v-133h-13zM1741 942v164h12v-12 q16 12 33 12q23 0 43 -25v-139h-12v135q-16 16 -33 17q-16 0 -31 -17v-135h-12zM1790 535v49q20 25 43 24q16 0 31 -12v45q-14 16 -31 16q-16 0 -31 -16l-12 4q20 27 43 27q25 0 45 -27v-137h-14v12q-14 -12 -31 -12q-23 0 -43 27zM1802 539q14 -16 31 -17q17 1 31 17v41 q-14 16 -31 16q-16 0 -31 -16v-41zM1913 508v164h12v-15q16 14 31 15q25 0 45 -27v-137h-14v133q-14 16 -31 16q-16 0 -31 -16v-133h-12z" />
<glyph unicode="&#xa1;" horiz-adv-x="288" d="M111 -203v979h71v-979h-71zM111 985v139h71v-139h-71z" />
<glyph unicode="&#xa2;" d="M111 209v489h4q94 121 207 138v73h69v-73q113 -16 207 -138h4v-2l-72 -18q-66 74 -139 88v-623q74 14 139 88l72 -18v-4h-4q-94 -119 -207 -137v-72h-69v72q-113 18 -207 137h-4zM182 231q66 -74 140 -88v623q-74 -14 -140 -88v-447z" />
<glyph unicode="&#xa3;" d="M111 0l71 70q-37 31 -67 69h-4v1049h4q111 141 241 141q131 0 242 -141h4v-2l-72 -19q-82 92 -174 93q-92 0 -174 -93v-327h279v-70h-279v-141h279v-70h-279v-397q82 -92 174 -92h246v-70h-491z" />
<glyph unicode="&#xa4;" horiz-adv-x="911" d="M111 406l118 116q-2 4 -8 10h-2v334h2q4 4 10 13l-120 120l51 50l119 -119q88 78 184 78q92 0 176 -72l113 113l51 -50l-115 -112l17 -21h2v-334h-2l-13 -16l111 -110l-51 -50l-109 111q-86 -76 -180 -76q-98 0 -189 82l-114 -117zM289 553q82 -92 176 -92q92 0 174 92 v293q-82 90 -174 90q-94 0 -176 -90v-293z" />
<glyph unicode="&#xa5;" d="M111 209v72h211v139h-211v69h211v213q-113 16 -207 138h-4v489h71v-469q82 -90 174 -90t174 90v469h72v-489h-4q-94 -121 -207 -138v-213h211v-69h-211v-139h211v-72h-211v-209h-69v209h-211z" />
<glyph unicode="&#xa6;" horiz-adv-x="288" d="M111 -20v663h71v-663h-71zM111 778v664h71v-664h-71z" />
<glyph unicode="&#xa7;" d="M111 -37l71 19q82 -90 174 -91q92 0 174 91v168q-82 90 -172 90h-2q-131 0 -241 141h-4v209h4q55 70 116 104q-61 37 -116 107h-2v209h2q111 139 241 139q131 0 242 -139h4v-4l-72 -19q-82 92 -174 92t-174 -92v-166q82 -92 172 -92h2q131 0 242 -139h4v-209h-4 q-55 -70 -117 -107q61 -35 117 -104h4v-209h-4q-111 -141 -242 -141t-241 141h-4v2zM182 401q82 -90 174 -90t174 90v166q-82 92 -174 92h-2q-92 0 -172 -92v-166z" />
<glyph unicode="&#xa8;" horiz-adv-x="497" d="M111 1120v140h71v-140h-71zM322 1120v140h69v-140h-69z" />
<glyph unicode="&#xa9;" horiz-adv-x="729" d="M111 500v737h6q55 70 131 70v-56q-47 0 -84 -39v-688q37 -39 84 -39v-53q-78 0 -133 72l8 -4h-12zM229 604v533h7q55 68 120 67q68 0 121 -67h8v-21l-47 -12q-41 47 -82 47q-39 0 -73 -39v-483q35 -39 73 -39q41 0 82 45l47 -12v-19h-12l8 4q-57 -74 -125 -73 q-66 0 -120 69h-7zM485 432v53q49 0 84 39v688q-35 39 -84 39v56q76 0 131 -70h7v-737h-11l6 4q-55 -72 -133 -72z" />
<glyph unicode="&#xaa;" d="M111 774v178h4q111 139 241 140q92 0 174 -70v156q-82 92 -174 92t-174 -92l-71 18v4h4q111 139 241 139q131 0 242 -139h4v-565h-72v70q-84 -70 -174 -70q-131 0 -241 139h-4zM182 797q82 -92 174 -92t174 92v133q-82 92 -174 92t-174 -92v-133z" />
<glyph unicode="&#xab;" horiz-adv-x="729" d="M111 561v70l245 211v-70l-139 -176l135 -174v-70zM377 561v70l246 211v-70l-140 -176l135 -174v-70z" />
<glyph unicode="&#xac;" horiz-adv-x="890" d="M111 561v72h534v-4q139 -111 139 -242h-69q0 92 -92 174h-512z" />
<glyph unicode="&#xad;" horiz-adv-x="847" d="M111 559v70h630v-70h-630z" />
<glyph unicode="&#xae;" horiz-adv-x="729" d="M111 500v737h6q55 70 131 70v-56q-47 0 -84 -39v-688q37 -39 84 -39v-53q-78 0 -133 72l8 -4h-12zM240 535v669h129q63 0 118 -67h7v-191h-7q-20 -27 -43 -43q23 -14 43 -41h7v-327h-54v303q-35 39 -73 39h-74v-342h-53zM293 932h74q38 0 73 39v141q-35 39 -73 39h-74 v-219zM485 432v53q49 0 84 39v688q-35 39 -84 39v56q76 0 131 -70h7v-737h-11l6 4q-55 -72 -133 -72z" />
<glyph unicode="&#xb0;" horiz-adv-x="567" d="M111 1090v108h4q18 23 40.5 83t37.5 83q37 35 94 35t92 -35q18 -25 39.5 -83t40.5 -83h2v-108h-2q-27 -66 -80 -166q-31 -37 -92 -37q-57 0 -94 37q-18 23 -41 83t-37 83h-4zM182 1110q14 -53 47 -129q18 -25 58 -25q39 0 55 25q16 53 49 129v68q-16 53 -49 129 q-16 23 -55 22q-41 0 -58 -22q-16 -53 -47 -129v-68z" />
<glyph unicode="&#xb1;" horiz-adv-x="847" d="M111 129v70h630v-70h-630zM111 559v70h280v280h70v-280h280v-70h-280v-278h-70v278h-280z" />
<glyph unicode="&#xb2;" horiz-adv-x="561" d="M111 502v342h2q78 100 170 100v-51q-63 0 -121 -64v-311q57 -66 121 -65q63 0 120 65l52 -14v-2h-2q-78 -98 -170 -99q-92 0 -170 99h-2zM111 1176v59h2q78 100 170 100t170 -100h2v-244h-2q-78 -98 -170 -98v51q63 0 120 62v215q-57 66 -120 65q-66 0 -121 -65v-45h-51z " />
<glyph unicode="&#xb3;" horiz-adv-x="561" d="M111 502v61h51v-45q57 -66 121 -65q63 0 120 65v311q-57 63 -120 64v51q63 0 120 62v215q-57 66 -120 65q-66 0 -121 -65v-45h-51v59h2q78 100 170 100t170 -100h2v-244h-2q-39 -47 -82 -71q43 -27 82 -76h2v-342h-2q-78 -98 -170 -99q-92 0 -170 99h-2z" />
<glyph unicode="&#xb4;" horiz-adv-x="481" d="M111 1051l194 278h70l-193 -278h-71z" />
<glyph unicode="&#xb5;" d="M111 -264v1173h71v-747q82 -90 174 -90t174 90v747h72v-768h-4q-82 -104 -176 -131v-12q82 -92 174 -92v-70q-131 0 -242 139h-4v27q-88 2 -168 70v-336h-71z" />
<glyph unicode="&#xb6;" horiz-adv-x="749" d="M111 819v350h4q111 139 239 140h289v-1430h-72v1360h-71v-1360h-72v801h-106v2q-113 18 -207 137h-4z" />
<glyph unicode="&#xb7;" horiz-adv-x="288" d="M111 561v139h71v-139h-71z" />
<glyph unicode="&#xb8;" horiz-adv-x="462" d="M111 -70v140h71v-80q92 -29 172 -129h2v-92h-2q-111 -139 -243 -140v70q94 0 176 92v47q-82 92 -176 92z" />
<glyph unicode="&#xb9;" horiz-adv-x="561" d="M111 502v2l51 14q45 -53 96 -61v878h49v-878q51 8 96 61l52 -14v-2h-2q-78 -98 -170 -99q-92 0 -170 99h-2z" />
<glyph unicode="&#xba;" horiz-adv-x="567" d="M111 1151v109h4q39 51 78 104q37 35 94 35t92 -35l80 -104h2v-109h-2q-66 -90 -70 -94q-45 -47 -102 -47t-94 37q-39 51 -78 104h-4zM182 1171q61 -92 105 -92q37 0 60.5 30.5t43.5 61.5v68q-14 18 -49 68q-16 23 -55 22q-45 0 -105 -90v-68z" />
<glyph unicode="&#xbb;" horiz-adv-x="729" d="M111 772v70l245 -211v-70l-239 -209v70l135 174zM377 772v70l246 -211v-70l-240 -209v70l135 174z" />
<glyph unicode="&#xbc;" horiz-adv-x="1343" d="M111 502v2l51 14q45 -53 96 -61v878h49v-878q51 8 96 61l52 -14v-2h-2q-78 -98 -170 -99q-92 0 -170 99h-2zM426 0l420 1329h72l-420 -1329h-72zM893 391l147 539h50l-146 -539v-82q57 -63 121 -63h25v440h49v-420q27 16 49 43l49 -12v-4h-2q-45 -55 -96 -80v-213h-49 v199q-12 -2 -25 -2q-90 0 -168 96h-2v98h-2z" />
<glyph unicode="&#xbd;" horiz-adv-x="1372" d="M111 502v2l51 14q45 -53 96 -61v878h49v-878q51 8 96 61l52 -14v-2h-2q-78 -98 -170 -99q-92 0 -170 99h-2zM426 0l420 1329h72l-420 -1329h-72zM922 98v342h2q78 98 170 99v-50q-63 0 -121 -63v-313q57 -63 121 -64q63 0 120 64l52 -13v-2h-2q-78 -98 -170 -98t-170 98 h-2zM922 772v59h2q78 98 170 99q92 0 170 -99h2v-243h-2q-78 -98 -170 -99v50q66 0 120 63v215q-55 63 -120 64q-63 0 -121 -64v-45h-51z" />
<glyph unicode="&#xbe;" horiz-adv-x="1363" d="M111 502v61h51v-45q55 -66 121 -65q63 0 120 65v311q-57 63 -120 64v51q63 0 120 62v215q-57 66 -120 65q-66 0 -121 -65v-45h-51v59h2q78 100 170 100t170 -100h2v-244h-2q-39 -47 -82 -71q43 -27 82 -76h2v-342h-2q-78 -98 -170 -99q-92 0 -170 99h-2zM446 0l420 1329 h72l-420 -1329h-72zM913 391l148 539h49l-145 -539v-82q57 -63 120 -63h25v440h49v-420q27 16 49 43l49 -12v-4h-2q-45 -55 -96 -80v-213h-49v199q-12 -2 -25 -2q-90 0 -167 96h-3v98h-2z" />
<glyph unicode="&#xbf;" d="M111 -63v350h4q86 109 188 133v356h72v-420h-21q-90 0 -172 -92v-305q82 -92 174 -92t174 92l72 -20v-2h-4q-111 -139 -242 -140q-131 0 -241 140h-4zM303 985v139h72v-139h-72z" />
<glyph unicode="&#xc0;" d="M111 2v1188h4q111 139 241 139q131 0 242 -139h4v-1188h-72v698h-348v-698h-71zM182 770h348v399q-82 90 -174 91q-92 0 -174 -91v-399zM225 1636h70l192 -217h-69z" />
<glyph unicode="&#xc1;" d="M111 2v1188h4q111 139 241 139q131 0 242 -139h4v-1188h-72v698h-348v-698h-71zM182 770h348v399q-82 90 -174 91q-92 0 -174 -91v-399zM225 1419l193 217h69l-192 -217h-70z" />
<glyph unicode="&#xc2;" d="M111 2v1188h4q111 139 241 139q131 0 242 -139h4v-1188h-72v698h-348v-698h-71zM182 770h348v399q-82 90 -174 91q-92 0 -174 -91v-399zM182 1419l140 217h69l139 -223h-69l-105 154l-104 -148h-70z" />
<glyph unicode="&#xc3;" d="M111 2v1188h4q111 139 241 139q131 0 242 -139h4v-1188h-72v698h-348v-698h-71zM119 1503l2 2h2q102 61 145 62q35 0 68 -13l65 -24q27 -10 45 -10q16 0 89 36l59 -40l-2 -5l-2 2q-102 -63 -146 -63q-29 0 -67 14l-66 25q-27 10 -45 10q-16 0 -88 -39zM182 770h348v399 q-82 90 -174 91q-92 0 -174 -91v-399z" />
<glyph unicode="&#xc4;" d="M111 2v1188h4q111 139 241 139q131 0 242 -139h4v-1188h-72v698h-348v-698h-71zM182 770h348v399q-82 90 -174 91q-92 0 -174 -91v-399zM217 1430v139h70v-139h-70zM426 1430v139h70v-139h-70z" />
<glyph unicode="&#xc5;" d="M111 2v1188h4q111 139 241 139q131 0 242 -139h4v-1188h-72v698h-348v-698h-71zM174 1389v102h2q41 49 80 98q35 35 92 35t92 -35l78 -98h4v-102h-4l-78 -99q-35 -35 -92 -35t-92 35q-39 49 -80 99h-2zM182 770h348v399q-82 90 -174 91q-92 0 -174 -91v-399zM244 1409 q25 -31 49 -63q16 -23 55 -23q35 0 62 29l43 57v61q-23 29 -43 58q-29 31 -62 31t-61 -31q-20 -29 -43 -58v-61z" />
<glyph unicode="&#xc6;" horiz-adv-x="1126" d="M111 2v1188h4q111 139 241 139q111 0 209 -102q100 102 211 102q131 0 242 -139h2v-4l-70 -19q-82 92 -174 93q-92 0 -174 -93v-397h279v-70h-279v-538q82 -90 174 -90t174 90l70 -19v-2h-2q-111 -139 -242 -139t-241 139h-5v559h-348v-698h-71zM182 770h348v397 q-82 92 -174 93q-92 0 -174 -93v-397z" />
<glyph unicode="&#xc7;" d="M111 139v1049h4q111 141 241 141q131 0 242 -141h4v-2l-72 -19q-82 92 -174 93q-92 0 -174 -93v-1005q82 -92 174 -92t174 92l72 -19v-4h-4q-111 -139 -242 -139v-10q92 -29 172 -129h2v-92h-2q-111 -139 -241 -140v70q92 0 174 92v47q-82 92 -174 92v80q-92 29 -172 129 h-4z" />
<glyph unicode="&#xc8;" d="M111 141v1049h4q111 139 241 139q131 0 242 -139h4v-2l-72 -19q-82 90 -174 91q-92 0 -174 -91v-399h279v-70h-279v-536q82 -92 174 -92t174 92l72 -19v-4h-4q-111 -139 -242 -139t-241 139h-4zM225 1636h70l192 -217h-69z" />
<glyph unicode="&#xc9;" d="M111 141v1049h4q111 139 241 139q131 0 242 -139h4v-2l-72 -19q-82 90 -174 91q-92 0 -174 -91v-399h279v-70h-279v-536q82 -92 174 -92t174 92l72 -19v-4h-4q-111 -139 -242 -139t-241 139h-4zM225 1419l193 217h69l-192 -217h-70z" />
<glyph unicode="&#xca;" d="M111 141v1049h4q111 139 241 139q131 0 242 -139h4v-2l-72 -19q-82 90 -174 91q-92 0 -174 -91v-399h279v-70h-279v-536q82 -92 174 -92t174 92l72 -19v-4h-4q-111 -139 -242 -139t-241 139h-4zM182 1419l140 217h69l139 -223h-69l-105 154l-104 -148h-70z" />
<glyph unicode="&#xcb;" d="M111 141v1049h4q111 139 241 139q131 0 242 -139h4v-2l-72 -19q-82 90 -174 91q-92 0 -174 -91v-399h279v-70h-279v-536q82 -92 174 -92t174 92l72 -19v-4h-4q-111 -139 -242 -139t-241 139h-4zM217 1430v139h70v-139h-70zM426 1430v139h70v-139h-70z" />
<glyph unicode="&#xcc;" horiz-adv-x="481" d="M111 1636h71l193 -217h-70zM207 2v1327h72v-1327h-72z" />
<glyph unicode="&#xcd;" horiz-adv-x="481" d="M111 1419l194 217h70l-193 -217h-71zM207 2v1327h72v-1327h-72z" />
<glyph unicode="&#xce;" horiz-adv-x="567" d="M111 1419l139 217h72l139 -223h-70l-106 154l-105 -148h-69zM250 2v1327h72v-1327h-72z" />
<glyph unicode="&#xcf;" horiz-adv-x="497" d="M111 1430v139h69v-139h-69zM215 2v1327h72v-1327h-72zM322 1430v139h69v-139h-69z" />
<glyph unicode="&#xd0;" horiz-adv-x="778" d="M111 698v72h71v559h248q127 0 238 -141h4v-1049h-4q-109 -137 -238 -139h-248v698h-71zM252 70h174q92 0 176 92v1005q-84 92 -176 93h-174v-490h209v-72h-209v-628z" />
<glyph unicode="&#xd1;" d="M111 2v1188h4q111 139 241 139q131 0 242 -139h4v-1188h-72v1167q-82 90 -174 91q-92 0 -174 -91v-1167h-71zM119 1503l2 2h2q102 61 145 62q35 0 68 -13l65 -24q27 -10 45 -10q16 0 89 36l59 -40l-2 -5l-2 2q-102 -63 -146 -63q-29 0 -67 14l-66 25q-27 10 -45 10 q-16 0 -88 -39z" />
<glyph unicode="&#xd2;" d="M111 141v1049h4q111 139 241 139q131 0 242 -139h4v-1049h-4q-111 -139 -242 -139t-241 139h-4zM182 164q82 -92 174 -92t174 92v1005q-82 90 -174 91q-92 0 -174 -91v-1005zM225 1636h70l192 -217h-69z" />
<glyph unicode="&#xd3;" d="M111 141v1049h4q111 139 241 139q131 0 242 -139h4v-1049h-4q-111 -139 -242 -139t-241 139h-4zM182 164q82 -92 174 -92t174 92v1005q-82 90 -174 91q-92 0 -174 -91v-1005zM225 1419l193 217h69l-192 -217h-70z" />
<glyph unicode="&#xd4;" d="M111 141v1049h4q111 139 241 139q131 0 242 -139h4v-1049h-4q-111 -139 -242 -139t-241 139h-4zM182 164q82 -92 174 -92t174 92v1005q-82 90 -174 91q-92 0 -174 -91v-1005zM182 1419l140 217h69l139 -223h-69l-105 154l-104 -148h-70z" />
<glyph unicode="&#xd5;" d="M111 141v1049h4q111 139 241 139q131 0 242 -139h4v-1049h-4q-111 -139 -242 -139t-241 139h-4zM119 1503l2 2h2q102 61 145 62q35 0 68 -13l65 -24q27 -10 45 -10q16 0 89 36l59 -40l-2 -5l-2 2q-102 -63 -146 -63q-29 0 -67 14l-66 25q-27 10 -45 10q-16 0 -88 -39z M182 164q82 -92 174 -92t174 92v1005q-82 90 -174 91q-92 0 -174 -91v-1005z" />
<glyph unicode="&#xd6;" d="M111 141v1049h4q111 139 241 139q131 0 242 -139h4v-1049h-4q-111 -139 -242 -139t-241 139h-4zM182 164q82 -92 174 -92t174 92v1005q-82 90 -174 91q-92 0 -174 -91v-1005zM217 1430v139h70v-139h-70zM426 1430v139h70v-139h-70z" />
<glyph unicode="&#xd7;" horiz-adv-x="712" d="M111 397l198 197l-198 199l51 49l196 -199l199 199l49 -49l-198 -199l198 -197l-49 -49l-199 197l-196 -197z" />
<glyph unicode="&#xd8;" d="M111 -82l49 172q-25 23 -45 49h-4v1049h4q111 141 241 141q74 0 142 -45l32 115h72l-47 -162q23 -23 43 -49h4v-1049h-4q-111 -139 -242 -139q-72 0 -139 43l-35 -125h-71zM182 166l297 1048q-59 45 -123 46q-92 0 -174 -93v-1001zM236 113q59 -43 120 -43q92 0 174 92 v989z" />
<glyph unicode="&#xd9;" d="M111 141v1188h71v-1165q82 -92 174 -92t174 92v1165h72v-1188h-4q-111 -139 -242 -139t-241 139h-4zM225 1636h70l192 -217h-69z" />
<glyph unicode="&#xda;" d="M111 141v1188h71v-1165q82 -92 174 -92t174 92v1165h72v-1188h-4q-111 -139 -242 -139t-241 139h-4zM225 1419l193 217h69l-192 -217h-70z" />
<glyph unicode="&#xdb;" d="M111 141v1188h71v-1165q82 -92 174 -92t174 92v1165h72v-1188h-4q-111 -139 -242 -139t-241 139h-4zM182 1419l140 217h69l139 -223h-69l-105 154l-104 -148h-70z" />
<glyph unicode="&#xdc;" d="M111 141v1188h71v-1165q82 -92 174 -92t174 92v1165h72v-1188h-4q-111 -139 -242 -139t-241 139h-4zM217 1430v139h70v-139h-70zM426 1430v139h70v-139h-70z" />
<glyph unicode="&#xdd;" d="M111 840v489h71v-467q82 -92 174 -92t174 92v467h72v-489h-4q-94 -119 -207 -138v-700h-69v700q-113 18 -207 138h-4zM225 1419l193 217h69l-192 -217h-70z" />
<glyph unicode="&#xde;" d="M111 2v1327h71v-332h176q131 0 240 -139h4v-420h-4q-94 -119 -207 -137v-2h-209v-297h-71zM182 369h174q92 0 174 92v375q-82 92 -174 92h-174v-559z" />
<glyph unicode="&#xdf;" horiz-adv-x="753" d="M111 0v1184h2q111 139 243 139q133 0 244 -139h2v-281h-2q-111 -139 -244 -139q-23 -4 -24 -41q2 -20 22.5 -31.5t46.5 -5.5q133 0 244 -139h2v-567h-2q-111 -139 -244 -140v70q94 0 177 92v522q-84 94 -177 92q-68 -2 -104 37q-29 33 -27 70q-4 92 86 111q94 0 176 92 v235q-82 92 -176 92q-92 0 -174 -90v-1163h-71z" />
<glyph unicode="&#xe0;" d="M111 139v281h4q111 139 241 139q92 0 174 -70v259q-82 92 -174 92t-174 -92l-71 18v4h4q111 139 241 139q131 0 242 -139h4v-770h-72v70q-84 -70 -174 -70q-131 0 -241 139h-4zM182 162q82 -92 174 -92t174 92v235q-82 92 -174 92t-174 -92v-235zM225 1227h70l192 -217 h-69z" />
<glyph unicode="&#xe1;" d="M111 139v281h4q111 139 241 139q92 0 174 -70v259q-82 92 -174 92t-174 -92l-71 18v4h4q111 139 241 139q131 0 242 -139h4v-770h-72v70q-84 -70 -174 -70q-131 0 -241 139h-4zM182 162q82 -92 174 -92t174 92v235q-82 92 -174 92t-174 -92v-235zM225 1010l193 217h69 l-192 -217h-70z" />
<glyph unicode="&#xe2;" d="M111 139v281h4q111 139 241 139q92 0 174 -70v259q-82 92 -174 92t-174 -92l-71 18v4h4q111 139 241 139q131 0 242 -139h4v-770h-72v70q-84 -70 -174 -70q-131 0 -241 139h-4zM182 162q82 -92 174 -92t174 92v235q-82 92 -174 92t-174 -92v-235zM182 1010l140 217h69 l139 -223h-69l-105 153l-104 -147h-70z" />
<glyph unicode="&#xe3;" d="M111 139v281h4q111 139 241 139q92 0 174 -70v259q-82 92 -174 92t-174 -92l-71 18v4h4q111 139 241 139q131 0 242 -139h4v-770h-72v70q-84 -70 -174 -70q-131 0 -241 139h-4zM119 1094l2 2h2q102 61 145 61q35 0 68 -12l65 -25q27 -10 45 -10q16 0 89 37l59 -41l-2 -4 l-2 2q-102 -63 -146 -64q-29 0 -67 15l-66 24q-27 10 -45 11q-16 0 -88 -39zM182 162q82 -92 174 -92t174 92v235q-82 92 -174 92t-174 -92v-235z" />
<glyph unicode="&#xe4;" d="M111 139v281h4q111 139 241 139q92 0 174 -70v259q-82 92 -174 92t-174 -92l-71 18v4h4q111 139 241 139q131 0 242 -139h4v-770h-72v70q-84 -70 -174 -70q-131 0 -241 139h-4zM182 162q82 -92 174 -92t174 92v235q-82 92 -174 92t-174 -92v-235zM217 1020v139h70v-139 h-70zM426 1020v139h70v-139h-70z" />
<glyph unicode="&#xe5;" d="M111 139v281h4q111 139 241 139q92 0 174 -70v259q-82 92 -174 92t-174 -92l-71 18v4h4q111 139 241 139q131 0 242 -139h4v-770h-72v70q-84 -70 -174 -70q-131 0 -241 139h-4zM182 162q82 -92 174 -92t174 92v235q-82 92 -174 92t-174 -92v-235zM186 1051v71h4 q61 57 74 66q39 27 92 26q53 0 93 -26q12 -8 73 -66h4v-71h-4q-74 -63 -80 -66q-37 -25 -94 -24q-51 0 -88 26q-8 6 -70 64h-4zM254 1065q66 -59 102 -59q37 0 103 59v43q-25 23 -47 45q-18 14 -56 14q-37 0 -55 -14q-23 -23 -47 -45v-43z" />
<glyph unicode="&#xe6;" horiz-adv-x="1126" d="M111 141v279h4q111 141 241 141q92 0 174 -69v256q-82 92 -174 92t-174 -92l-71 20v2h4q111 139 241 139q111 0 209 -102q100 102 211 102q131 0 242 -139h2v-278h-2q-111 -141 -242 -142q-92 0 -174 70v-258q82 -90 174 -90t174 90l70 -19v-2h-2q-111 -139 -242 -139 q-111 0 -211 102q-98 -102 -209 -102q-131 0 -241 139h-4zM182 162q82 -90 174 -90t174 90v237q-82 92 -174 93q-92 0 -174 -93v-237zM602 512q82 -92 174 -92t174 92v236q-82 92 -174 92t-174 -92v-236z" />
<glyph unicode="&#xe7;" d="M111 139v631h4q111 139 241 139q131 0 242 -139h4v-4l-72 -18q-82 92 -174 92t-174 -92v-586q82 -92 174 -92t174 92l72 -19v-4h-4q-111 -139 -242 -139v-10q92 -29 172 -129h2v-92h-2q-111 -139 -241 -140v70q92 0 174 92v47q-82 92 -174 92v80q-92 29 -172 129h-4z" />
<glyph unicode="&#xe8;" d="M111 139v631h4q111 139 241 139q131 0 242 -139h4v-281h-4q-111 -139 -242 -139q-92 0 -174 70v-258q82 -92 174 -92t174 92l72 -19v-4h-4q-111 -139 -242 -139t-241 139h-4zM182 512q82 -92 174 -92t174 92v236q-82 92 -174 92t-174 -92v-236zM225 1227h70l192 -217h-69 z" />
<glyph unicode="&#xe9;" d="M111 139v631h4q111 139 241 139q131 0 242 -139h4v-281h-4q-111 -139 -242 -139q-92 0 -174 70v-258q82 -92 174 -92t174 92l72 -19v-4h-4q-111 -139 -242 -139t-241 139h-4zM182 512q82 -92 174 -92t174 92v236q-82 92 -174 92t-174 -92v-236zM225 1010l193 217h69 l-192 -217h-70z" />
<glyph unicode="&#xea;" d="M111 139v631h4q111 139 241 139q131 0 242 -139h4v-281h-4q-111 -139 -242 -139q-92 0 -174 70v-258q82 -92 174 -92t174 92l72 -19v-4h-4q-111 -139 -242 -139t-241 139h-4zM182 512q82 -92 174 -92t174 92v236q-82 92 -174 92t-174 -92v-236zM182 1010l140 217h69 l139 -223h-69l-105 153l-104 -147h-70z" />
<glyph unicode="&#xeb;" d="M111 139v631h4q111 139 241 139q131 0 242 -139h4v-281h-4q-111 -139 -242 -139q-92 0 -174 70v-258q82 -92 174 -92t174 92l72 -19v-4h-4q-111 -139 -242 -139t-241 139h-4zM182 512q82 -92 174 -92t174 92v236q-82 92 -174 92t-174 -92v-236zM217 1020v139h70v-139h-70 zM426 1020v139h70v-139h-70z" />
<glyph unicode="&#xec;" horiz-adv-x="481" d="M111 1227h71l193 -217h-70zM207 0v909h72v-909h-72z" />
<glyph unicode="&#xed;" horiz-adv-x="481" d="M111 1010l194 217h70l-193 -217h-71zM207 0v909h72v-909h-72z" />
<glyph unicode="&#xee;" horiz-adv-x="567" d="M111 1010l139 217h72l139 -223h-70l-106 153l-105 -147h-69zM250 0v909h72v-909h-72z" />
<glyph unicode="&#xef;" horiz-adv-x="497" d="M111 1020v139h69v-139h-69zM215 0v909h72v-909h-72zM322 1020v139h69v-139h-69z" />
<glyph unicode="&#xf0;" horiz-adv-x="778" d="M111 139v631h4q111 139 241 139q92 0 174 -69v278l-278 -139v70l266 133q-78 78 -162 78v69q119 0 222 -117l94 48v-72l-70 -35v-1014h-4q-111 -139 -242 -139t-241 139h-4zM182 162q82 -92 174 -92t174 92v586q-82 92 -174 92t-174 -92v-586z" />
<glyph unicode="&#xf1;" d="M111 0v909h71v-69q84 70 174 69q131 0 242 -139h4v-770h-72v748q-82 92 -174 92t-174 -92v-748h-71zM119 1094l2 2h2q102 61 145 61q35 0 68 -12l65 -25q27 -10 45 -10q16 0 89 37l59 -41l-2 -4l-2 2q-102 -63 -146 -64q-29 0 -67 15l-66 24q-27 10 -45 11q-16 0 -88 -39 z" />
<glyph unicode="&#xf2;" d="M111 139v631h4q111 139 241 139q131 0 242 -139h4v-631h-4q-111 -139 -242 -139t-241 139h-4zM182 162q82 -92 174 -92t174 92v586q-82 92 -174 92t-174 -92v-586zM225 1227h70l192 -217h-69z" />
<glyph unicode="&#xf3;" d="M111 139v631h4q111 139 241 139q131 0 242 -139h4v-631h-4q-111 -139 -242 -139t-241 139h-4zM182 162q82 -92 174 -92t174 92v586q-82 92 -174 92t-174 -92v-586zM225 1010l193 217h69l-192 -217h-70z" />
<glyph unicode="&#xf4;" d="M111 139v631h4q111 139 241 139q131 0 242 -139h4v-631h-4q-111 -139 -242 -139t-241 139h-4zM182 162q82 -92 174 -92t174 92v586q-82 92 -174 92t-174 -92v-586zM182 1010l140 217h69l139 -223h-69l-105 153l-104 -147h-70z" />
<glyph unicode="&#xf5;" d="M111 139v631h4q111 139 241 139q131 0 242 -139h4v-631h-4q-111 -139 -242 -139t-241 139h-4zM119 1094l2 2h2q102 61 145 61q35 0 68 -12l65 -25q27 -10 45 -10q16 0 89 37l59 -41l-2 -4l-2 2q-102 -63 -146 -64q-29 0 -67 15l-66 24q-27 10 -45 11q-16 0 -88 -39z M182 162q82 -92 174 -92t174 92v586q-82 92 -174 92t-174 -92v-586z" />
<glyph unicode="&#xf6;" d="M111 139v631h4q111 139 241 139q131 0 242 -139h4v-631h-4q-111 -139 -242 -139t-241 139h-4zM182 162q82 -92 174 -92t174 92v586q-82 92 -174 92t-174 -92v-586zM217 1020v139h70v-139h-70zM426 1020v139h70v-139h-70z" />
<glyph unicode="&#xf7;" horiz-adv-x="847" d="M111 559v70h630v-70h-630zM391 291v139h70v-139h-70zM391 748v139h70v-139h-70z" />
<glyph unicode="&#xf8;" d="M111 139v631h4q111 139 241 139q55 0 109 -26l31 96h69l-43 -133q41 -31 76 -76h4v-631h-4q-111 -139 -242 -139q-53 0 -104 25l-35 -107h-70l46 143q-41 31 -78 78h-4zM182 162q16 -18 33 -33l227 688q-43 23 -86 23q-92 0 -174 -92v-586zM272 90q41 -20 84 -20 q92 0 174 92v586q-14 16 -30 30z" />
<glyph unicode="&#xf9;" d="M111 141v768h71v-747q82 -90 174 -90t174 90v747h72v-907h-72v70q-82 -70 -174 -70q-131 0 -241 139h-4zM225 1227h70l192 -217h-69z" />
<glyph unicode="&#xfa;" d="M111 141v768h71v-747q82 -90 174 -90t174 90v747h72v-907h-72v70q-82 -70 -174 -70q-131 0 -241 139h-4zM225 1010l193 217h69l-192 -217h-70z" />
<glyph unicode="&#xfb;" d="M111 141v768h71v-747q82 -90 174 -90t174 90v747h72v-907h-72v70q-82 -70 -174 -70q-131 0 -241 139h-4zM182 1010l140 217h69l139 -223h-69l-105 153l-104 -147h-70z" />
<glyph unicode="&#xfc;" d="M111 141v768h71v-747q82 -90 174 -90t174 90v747h72v-907h-72v70q-82 -70 -174 -70q-131 0 -241 139h-4zM217 1020v139h70v-139h-70zM426 1020v139h70v-139h-70z" />
<glyph unicode="&#xfd;" d="M111 141v768h71v-747q82 -90 174 -90t174 90v747h72v-1188h-4q-111 -139 -242 -139v70q92 0 174 92v328q-82 -70 -174 -70q-131 0 -241 139h-4zM225 1010l193 217h69l-192 -217h-70z" />
<glyph unicode="&#xfe;" d="M111 -418v1747h71v-489q82 70 174 69q131 0 242 -139h4v-629h-4q-111 -139 -242 -139q-92 0 -174 70v-490h-71zM182 164q82 -92 174 -92t174 92v584q-82 92 -174 92t-174 -92v-584z" />
<glyph unicode="&#xff;" d="M111 141v768h71v-747q82 -90 174 -90t174 90v747h72v-1188h-4q-111 -139 -242 -139v70q92 0 174 92v328q-82 -70 -174 -70q-131 0 -241 139h-4zM217 1020v139h70v-139h-70zM426 1020v139h70v-139h-70z" />
<glyph unicode="&#x152;" horiz-adv-x="1126" d="M111 141v1049h4q111 139 241 139q111 0 209 -102q100 102 211 102q131 0 242 -139h2v-4l-70 -19q-82 92 -174 93q-92 0 -174 -93v-397h279v-70h-279v-538q82 -90 174 -90t174 90l70 -19v-2h-2q-111 -139 -242 -139q-111 0 -211 102q-98 -102 -209 -102q-131 0 -241 139 h-4zM182 162q82 -90 174 -90t174 90v1005q-82 92 -174 93q-92 0 -174 -93v-1005z" />
<glyph unicode="&#x153;" horiz-adv-x="1126" d="M111 141v629h4q111 139 241 139q113 0 211 -102q98 102 209 102q131 0 242 -141h2v-279h-2q-111 -139 -242 -139q-92 0 -174 70v-258q82 -92 174 -92t174 92l70 -19v-4h-2q-111 -139 -242 -139q-113 0 -211 102q-98 -100 -209 -100q-131 0 -241 139h-4zM182 162 q82 -90 174 -90t174 90v586q-82 92 -174 92t-174 -92v-586zM602 512q82 -92 174 -92t174 92v236q-82 92 -174 92t-174 -92v-236z" />
<glyph unicode="&#x178;" d="M111 840v489h71v-467q82 -92 174 -92t174 92v467h72v-489h-4q-94 -119 -207 -138v-700h-69v700q-113 18 -207 138h-4zM217 1430v139h70v-139h-70zM426 1430v139h70v-139h-70z" />
<glyph unicode="&#x2c6;" horiz-adv-x="567" d="M111 1051l141 278h70l139 -285h-70l-104 216l-105 -209h-71z" />
<glyph unicode="&#x2dc;" horiz-adv-x="692" d="M111 1217l2 4l2 -2q102 63 145 63q27 0 68 -14l65 -23q35 -12 45 -12q16 0 88 39l60 -41l-2 -4h-2q-102 -61 -146 -62q-35 0 -67 13l-66 24q-27 10 -45 10q-16 0 -86 -36z" />
<glyph unicode="&#x2000;" horiz-adv-x="819" />
<glyph unicode="&#x2001;" horiz-adv-x="1638" />
<glyph unicode="&#x2002;" horiz-adv-x="819" />
<glyph unicode="&#x2003;" horiz-adv-x="1638" />
<glyph unicode="&#x2004;" horiz-adv-x="546" />
<glyph unicode="&#x2005;" horiz-adv-x="409" />
<glyph unicode="&#x2006;" horiz-adv-x="273" />
<glyph unicode="&#x2007;" horiz-adv-x="273" />
<glyph unicode="&#x2008;" horiz-adv-x="204" />
<glyph unicode="&#x2009;" horiz-adv-x="327" />
<glyph unicode="&#x200a;" horiz-adv-x="91" />
<glyph unicode="&#x2010;" horiz-adv-x="847" d="M111 559v70h630v-70h-630z" />
<glyph unicode="&#x2011;" horiz-adv-x="847" d="M111 559v70h630v-70h-630z" />
<glyph unicode="&#x2012;" horiz-adv-x="847" d="M111 559v70h630v-70h-630z" />
<glyph unicode="&#x2013;" horiz-adv-x="970" d="M111 559v70h753v-70h-753z" />
<glyph unicode="&#x2014;" horiz-adv-x="1134" d="M111 559v70h917v-70h-917z" />
<glyph unicode="&#x2018;" horiz-adv-x="358" d="M111 1329h71l70 -278h-70z" />
<glyph unicode="&#x2019;" horiz-adv-x="358" d="M111 1051l71 278h70l-70 -278h-71z" />
<glyph unicode="&#x201a;" horiz-adv-x="358" d="M111 -139l71 280h70l-70 -280h-71z" />
<glyph unicode="&#x201c;" horiz-adv-x="497" d="M111 1329h71l70 -278h-70zM252 1329h70l69 -278h-69z" />
<glyph unicode="&#x201d;" horiz-adv-x="497" d="M111 1051l71 278h70l-70 -278h-71zM252 1051l70 278h69l-69 -278h-70z" />
<glyph unicode="&#x201e;" horiz-adv-x="563" d="M111 -139l71 280h70l-70 -280h-71zM315 -139l72 280h70l-70 -280h-72z" />
<glyph unicode="&#x2022;" horiz-adv-x="368" d="M111 520v228h151v-228h-151z" />
<glyph unicode="&#x2026;" horiz-adv-x="903" d="M111 2v139h71v-139h-71zM418 2v139h71v-139h-71zM725 2v139h72v-139h-72z" />
<glyph unicode="&#x202f;" horiz-adv-x="327" />
<glyph unicode="&#x2039;" horiz-adv-x="462" d="M111 561v70l245 211v-70l-139 -176l135 -174v-70z" />
<glyph unicode="&#x203a;" horiz-adv-x="462" d="M111 772v70l245 -211v-70l-239 -209v70l135 174z" />
<glyph unicode="&#x205f;" horiz-adv-x="409" />
<glyph unicode="&#x2122;" horiz-adv-x="1286" d="M111 1096v20h8q76 72 168 72t168 -72h8v-20l-62 -13q-41 35 -82 45v-317h-67v317q-41 -10 -82 -45zM541 811v305h8q78 72 168 72q76 0 143 -51q68 51 141 51q92 0 170 -72h9v-305h-68v279q-53 43 -111 43q-55 0 -108 -43v-279h-68v279q-51 43 -108 43q-55 0 -109 -43 v-279h-67z" />
<glyph unicode="&#x25fc;" horiz-adv-x="911" d="M0 0v911h911v-911h-911z" />
</font>
</defs>
</svg>
